<?xml version="1.0" encoding="UTF-8"?>
<svg id="Capa_1" xmlns="http://www.w3.org/2000/svg" version="1.1" viewBox="0 0 222.3 103.2">
  <!-- Generator: Adobe Illustrator 30.1.0, SVG Export Plug-In . SVG Version: 2.1.1 Build 136)  -->
  <defs>
    <style>
      .st0 {
        fill: #253450;
      }

      .st1 {
        fill: #08beab;
      }

      .st2 {
        fill: #7a8394;
      }
    </style>
  </defs>
  <g>
    <path class="st0" d="M1.8,61.1h5.1v-8.3h7.6v8.3h6.6v5.6h-6.6v12.7c0,2.6.6,3.8,3.4,3.8s1.7,0,2.5-.2v5.3c-1.4.4-3.2.6-5.1.6-6.4,0-8.3-2.8-8.3-8.2v-13.9H1.8v-5.6Z"/>
    <path class="st0" d="M48.6,81.2c0,3.3.2,6.8.2,7.4h-7.2c-.2-.8-.3-2.6-.3-3.4-1.5,2.5-4.6,4.1-10,4.1s-10.6-4.6-10.6-8.9c0-7.2,6.3-9.1,14.4-9.1h6.1v-1.1c0-2.5-1.1-4.6-5.7-4.6s-5.2,1.7-5.6,3.6h-7.6c.3-3.5,2.7-8.8,13.1-8.8s13.2,5.4,13.2,10v10.8ZM41.2,76.2c-.7,0-2.6,0-5.9,0-5,0-7.1,1.2-7.1,3.9s1.6,3.8,5.2,3.8c5.6,0,7.8-2.8,7.8-7v-.7Z"/>
    <path class="st0" d="M52.4,88.6v-40h7.6v40h-7.6Z"/>
    <path class="st0" d="M69.6,76.7c.2,3.9,3,6.9,7.6,6.9s5.4-1.2,6.6-3.2h7.6c-1.6,4.6-5.7,9-14.3,9s-15-7.4-15-14.4,5.3-14.5,14.9-14.5,14.7,7.4,14.7,14.5,0,1.1,0,1.8h-22ZM84,71.9c-.2-2.5-1.5-6.1-7-6.1s-6.9,2.8-7.2,6.1h14.2Z"/>
    <path class="st0" d="M93.6,68c0-2.3,0-4.9,0-6.9h7.4c.1.8.2,2.7.2,4,1.2-2.1,3.9-4.8,9.4-4.8s10.7,4.1,10.7,11.3v16.9h-7.6v-15.6c0-3.6-1.4-6.6-5.7-6.6s-6.8,3.3-6.8,8.7v13.5h-7.6v-20.5Z"/>
    <path class="st0" d="M121.5,61.1h5.1v-8.3h7.6v8.3h6.6v5.6h-6.6v12.7c0,2.6.6,3.8,3.4,3.8s1.7,0,2.5-.2v5.3c-1.4.4-3.2.6-5.1.6-6.4,0-8.3-2.8-8.3-8.2v-13.9h-5.1v-5.6Z"/>
    <path class="st1" d="M168.2,81.2c0,3.3.2,6.8.2,7.4h-7.2c-.2-.8-.3-2.6-.3-3.4-1.5,2.5-4.6,4.1-10,4.1s-10.6-4.6-10.6-8.9c0-7.2,6.3-9.1,14.4-9.1h6.1v-1.1c0-2.5-1.1-4.6-5.7-4.6s-5.2,1.7-5.6,3.6h-7.6c.3-3.5,2.7-8.8,13.1-8.8s13.2,5.4,13.2,10v10.8ZM160.8,76.2c-.7,0-2.6,0-5.9,0-5,0-7.1,1.2-7.1,3.9s1.6,3.8,5.2,3.8c5.6,0,7.8-2.8,7.8-7v-.7Z"/>
    <path class="st1" d="M172.1,88.6v-40h7.6v40h-7.6Z"/>
    <path class="st1" d="M183.7,88.6v-40h7.6v40h-7.6Z"/>
    <path class="st1" d="M200.5,80.2c.8,2.4,2.9,3.8,7,3.8s5.5-1.4,5.5-3-1.3-2.8-7.2-3.6c-10.2-1.4-11.8-5.1-11.8-8.5s3.1-8.6,12.4-8.6,12.8,4.7,13.2,8.4h-7.5c-.4-1.4-1.4-3.3-6-3.3s-4.6,1.6-4.6,2.7,1,2.3,6.5,3.1c10.9,1.6,12.5,5.2,12.5,9.1s-3.8,9-13.4,9-13.2-3.2-14.1-9.2h7.5Z"/>
  </g>
  <g>
    <path class="st2" d="M30.2,101.9v-.2c.4.3,1,.6,1.6.6.9,0,1.3-.4,1.3-.9,0-1.3-2.8-.5-2.8-2.2s.5-1.2,1.6-1.2,1,.2,1.3.4v.3c-.5-.3-.9-.4-1.3-.4-.9,0-1.2.4-1.2.9,0,1.3,2.8.5,2.8,2.2s-.5,1.2-1.6,1.2-1.3-.2-1.6-.6Z"/>
    <path class="st2" d="M37.8,98.4h-1.6v-.3h3.5v.3h-1.6v4.1h-.3v-4.1Z"/>
    <path class="st2" d="M46.2,102.5l-1.1-1.5c-.1,0-.3,0-.4,0h-1.3v1.4h-.3v-4.4h1.6c1.1,0,1.8.6,1.8,1.5s-.4,1.2-1,1.4l1.1,1.5h-.4ZM44.7,100.8c.9,0,1.5-.4,1.5-1.2s-.5-1.2-1.5-1.2h-1.3v2.4h1.3Z"/>
    <path class="st2" d="M52.9,101.3h-2.6l-.6,1.2h-.3l2-4.4h.3l2,4.4h-.3l-.6-1.2ZM52.8,101l-1.2-2.6-1.2,2.6h2.3Z"/>
    <path class="st2" d="M57.8,98.4h-1.6v-.3h3.5v.3h-1.6v4.1h-.3v-4.1Z"/>
    <path class="st2" d="M66.1,102.2v.3h-3.1v-4.4h3v.3h-2.6v1.7h2.4v.3h-2.4v1.8h2.7Z"/>
    <path class="st2" d="M72.9,100.3h.3v1.7c-.4.4-1,.6-1.6.6-1.3,0-2.3-1-2.3-2.2s1-2.2,2.3-2.2,1.2.2,1.6.6l-.2.2c-.4-.4-.8-.5-1.4-.5-1.2,0-2,.8-2,1.9s.9,1.9,2,1.9.9-.1,1.3-.4v-1.5Z"/>
    <path class="st2" d="M77.2,98.1h.3v4.4h-.3v-4.4Z"/>
    <path class="st2" d="M81.2,100.3c0-1.3,1-2.2,2.3-2.2s1.2.2,1.6.6l-.2.2c-.4-.4-.8-.5-1.4-.5-1.1,0-2,.8-2,1.9s.9,1.9,2,1.9,1-.2,1.4-.5l.2.2c-.4.4-.9.6-1.6.6-1.3,0-2.3-1-2.3-2.2Z"/>
    <path class="st2" d="M93.7,98.4h-1.6v-.3h3.5v.3h-1.6v4.1h-.3v-4.1Z"/>
    <path class="st2" d="M101.4,101.3h-2.6l-.6,1.2h-.3l2-4.4h.3l2,4.4h-.3l-.6-1.2ZM101.3,101l-1.2-2.6-1.2,2.6h2.3Z"/>
    <path class="st2" d="M105.7,98.1h.3v4.1h2.5v.3h-2.9v-4.4Z"/>
    <path class="st2" d="M115,102.2v.3h-3.1v-4.4h3v.3h-2.6v1.7h2.4v.3h-2.4v1.8h2.7Z"/>
    <path class="st2" d="M122.3,98.1v4.4h-.3l-3-3.8v3.8h-.3v-4.4h.3l3,3.8v-3.8h.3Z"/>
    <path class="st2" d="M127.2,98.4h-1.6v-.3h3.5v.3h-1.6v4.1h-.3v-4.1Z"/>
    <path class="st2" d="M136.1,101.9v-.2c.4.3,1,.6,1.6.6.9,0,1.3-.4,1.3-.9,0-1.3-2.8-.5-2.8-2.2s.5-1.2,1.6-1.2,1,.2,1.3.4v.3c-.5-.3-.9-.4-1.3-.4-.9,0-1.2.4-1.2.9,0,1.3,2.8.5,2.8,2.2s-.5,1.2-1.6,1.2-1.3-.2-1.6-.6Z"/>
    <path class="st2" d="M142.6,100.3c0-1.3,1-2.2,2.3-2.2s2.3,1,2.3,2.2-1,2.2-2.3,2.2-2.3-1-2.3-2.2ZM146.8,100.3c0-1.1-.8-1.9-2-1.9s-2,.8-2,1.9.8,1.9,2,1.9,2-.8,2-1.9Z"/>
    <path class="st2" d="M150.8,98.1h.3v4.1h2.5v.3h-2.9v-4.4Z"/>
    <path class="st2" d="M156.9,100.6v-2.5h.3v2.5c0,1.1.5,1.6,1.5,1.6s1.4-.5,1.4-1.6v-2.5h.3v2.5c0,1.3-.7,1.9-1.8,1.9s-1.8-.6-1.8-1.9Z"/>
    <path class="st2" d="M165.3,98.4h-1.6v-.3h3.5v.3h-1.6v4.1h-.3v-4.1Z"/>
    <path class="st2" d="M170.5,98.1h.3v4.4h-.3v-4.4Z"/>
    <path class="st2" d="M174.5,100.3c0-1.3,1-2.2,2.3-2.2s2.3,1,2.3,2.2-1,2.2-2.3,2.2-2.3-1-2.3-2.2ZM178.8,100.3c0-1.1-.8-1.9-2-1.9s-2,.8-2,1.9.8,1.9,2,1.9,2-.8,2-1.9Z"/>
    <path class="st2" d="M186.3,98.1v4.4h-.3l-3-3.8v3.8h-.3v-4.4h.3l3,3.8v-3.8h.3Z"/>
    <path class="st2" d="M190,101.9v-.2c.4.3,1,.6,1.6.6.9,0,1.3-.4,1.3-.9,0-1.3-2.8-.5-2.8-2.2s.5-1.2,1.6-1.2,1,.2,1.3.4v.3c-.5-.3-.9-.4-1.3-.4-.9,0-1.2.4-1.2.9,0,1.3,2.8.5,2.8,2.2s-.5,1.2-1.6,1.2-1.3-.2-1.6-.6Z"/>
  </g>
  <g>
    <path class="st1" d="M116.2,48.8h0c-12.1,0-22-9.9-22-22s9.9-22,22-22h0s0-4.2,0-4.2h0c-14.4,0-26.1,11.7-26.1,26.1s11.7,26.1,26.1,26.1h0v-4.2Z"/>
    <path class="st1" d="M102.3,26.9c0-7.7,6.3-13.9,14-13.9s14,6.2,14,13.9h4c0-9.9-8.1-17.9-18-17.9s-17.9,8-18,17.9h4Z"/>
    <path class="st0" d="M116.3,17.1v4c3.2,0,5.8,2.6,5.8,5.8s-2.6,5.8-5.8,5.8v4c5.4,0,9.7-4.4,9.7-9.7s-4.3-9.7-9.7-9.7Z"/>
  </g>
</svg>